<?xml version="1.0"?>
<svg width="73" height="73" xmlns="http://www.w3.org/2000/svg" xmlns:svg="http://www.w3.org/2000/svg" version="1.1">
 <title>progressive-webapps/audits/chrome-devtools</title>
 <desc>Created with Sketch.</desc>

 <g class="layer">
  <title>Layer 1</title>
  <g fill="none" fill-rule="evenodd" id="progressive-webapps/audits/chrome-devtools">
   <g fill-rule="nonzero" id="data-(1)" transform="translate(16.000000, 15.000000)">
    <polygon fill="#5A5A5A" id="Shape" points="15.4678879 35.0811921 27.4825745 35.0811921 27.4825745 40.0539856 15.4678879 40.0539856"/>
    <path d="m40.75,35.78l-38.55,0c-1.21,0 -2.2,-0.99 -2.2,-2.21l0,-31.37c0,-1.21 0.99,-2.2 2.2,-2.2l38.55,0c1.21,0 2.2,0.99 2.2,2.2l0,31.37c0,1.22 -0.99,2.21 -2.2,2.21z" fill="#FFD86E" id="svg_1"/>
    <path d="m42.95,2.21l0,31.36c0,1.22 -0.99,2.21 -2.2,2.21l-2.7,0c1.22,0 2.21,-0.99 2.21,-2.21l0,-31.36c0,-1.22 -0.99,-2.21 -2.21,-2.21l2.7,0c1.21,0 2.2,0.99 2.2,2.21z" fill="#FFB509" id="svg_2"/>
    <path d="m42.95,30.47l-42.95,0l0,3.1c0,1.22 0.99,2.21 2.2,2.21l38.55,0c1.21,0 2.2,-0.99 2.2,-2.21l0,-3.1z" fill="#838383" id="svg_3"/>
    <path d="m42.95,30.47l0,3.1c0,1.22 -0.99,2.21 -2.2,2.21l-2.7,0c1.22,0 2.21,-0.99 2.21,-2.21l0,-3.1l2.69,0z" fill="#5A5A5A" id="svg_4"/>
    <path d="m43,7.52l-42.95,0l0,-5.32c0,-1.21 0.99,-2.2 2.2,-2.2l38.54,0c1.22,0 2.21,0.99 2.21,2.2l0,5.32z" fill="#ACACAC" id="svg_5"/>
    <path d="m43,2.2l0,5.32l-2.74,0l0,-5.32c0,-1.21 -0.99,-2.2 -2.21,-2.2l2.75,0c1.21,0 2.2,0.99 2.2,2.2z" fill="#9C9C9C" id="svg_6"/>
    <path d="m31.38,42.95l-19.81,0c-0.23,0 -0.43,-0.19 -0.43,-0.43l0,-1.4c0,-0.95 0.77,-1.72 1.72,-1.72l17.23,0c0.95,0 1.72,0.77 1.72,1.72l0,1.4c0,0.24 -0.2,0.43 -0.43,0.43z" fill="#838383" id="svg_7"/>
    <path d="m31.81,41.12l0,1.4c0,0.24 -0.2,0.43 -0.43,0.43l-1.53,0l0,-1.83c0,-0.95 -0.77,-1.72 -1.72,-1.72l1.96,0c0.95,0 1.72,0.77 1.72,1.72z" fill="#5A5A5A" id="svg_8"/>
    <g fill="#838383" id="Group" transform="translate(2.183594, 10.330078)">
     <path d="m2.73,5.33c-0.16,0 -0.32,-0.06 -0.45,-0.18l-2.03,-2.03c-0.25,-0.25 -0.25,-0.65 0,-0.9l2.03,-2.03c0.25,-0.24 0.65,-0.24 0.89,0c0.25,0.25 0.25,0.65 0,0.89l-1.58,1.59l1.58,1.59c0.25,0.24 0.25,0.64 0,0.89c-0.12,0.12 -0.28,0.18 -0.44,0.18z" id="svg_9"/>
     <path d="m7.59,5.33c-0.16,0 -0.33,-0.06 -0.45,-0.18c-0.24,-0.25 -0.24,-0.65 0,-0.89l1.59,-1.59l-1.59,-1.59c-0.24,-0.24 -0.24,-0.64 0,-0.89c0.25,-0.24 0.65,-0.24 0.89,0l2.03,2.03c0.25,0.25 0.25,0.65 0,0.9l-2.03,2.03c-0.12,0.12 -0.28,0.18 -0.44,0.18z" id="svg_10"/>
     <path d="m4.43,5.33c-0.08,0 -0.16,-0.01 -0.23,-0.04c-0.33,-0.13 -0.49,-0.49 -0.36,-0.82l1.6,-4.06c0.13,-0.33 0.49,-0.49 0.82,-0.36c0.32,0.13 0.48,0.49 0.35,0.82l-1.6,4.06c-0.09,0.25 -0.33,0.4 -0.58,0.4z" id="svg_11"/>
     <path d="m5.43,9.14l-4.37,0c-0.35,0 -0.63,-0.29 -0.63,-0.63c0,-0.35 0.28,-0.63 0.63,-0.63l4.37,0c0.35,0 0.63,0.28 0.63,0.63c0,0.34 -0.28,0.63 -0.63,0.63z" id="svg_12"/>
     <path d="m15.49,9.14l-7.68,0c-0.35,0 -0.63,-0.29 -0.63,-0.63c0,-0.35 0.28,-0.63 0.63,-0.63l7.68,0c0.35,0 0.63,0.28 0.63,0.63c0,0.34 -0.28,0.63 -0.63,0.63z" id="svg_13"/>
     <path d="m2.92,11.87l-1.86,0c-0.35,0 -0.63,-0.28 -0.63,-0.63c0,-0.35 0.28,-0.63 0.63,-0.63l1.86,0c0.35,0 0.63,0.28 0.63,0.63c0,0.35 -0.28,0.63 -0.63,0.63z" id="svg_14"/>
     <path d="m14.25,11.87l-1.13,0c-0.35,0 -0.63,-0.28 -0.63,-0.63c0,-0.35 0.28,-0.63 0.63,-0.63l1.13,0c0.35,0 0.63,0.28 0.63,0.63c0,0.35 -0.28,0.63 -0.63,0.63z" id="svg_15"/>
     <path d="m10.76,11.87l-5.56,0c-0.35,0 -0.63,-0.28 -0.63,-0.63c0,-0.35 0.28,-0.63 0.63,-0.63l5.56,0c0.35,0 0.63,0.28 0.63,0.63c0,0.35 -0.28,0.63 -0.63,0.63z" id="svg_16"/>
     <path d="m18.43,11.87l-2.12,0c-0.35,0 -0.63,-0.28 -0.63,-0.63c0,-0.35 0.28,-0.63 0.63,-0.63l2.12,0c0.35,0 0.63,0.28 0.63,0.63c0,0.35 -0.28,0.63 -0.63,0.63z" id="svg_17"/>
     <path d="m14.36,3.17l-2.23,0c-0.35,0 -0.63,-0.28 -0.63,-0.63c0,-0.35 0.28,-0.63 0.63,-0.63l2.23,0c0.35,0 0.63,0.28 0.63,0.63c0,0.35 -0.28,0.63 -0.63,0.63z" id="svg_18"/>
     <path d="m30.53,3.17l-13.66,0c-0.35,0 -0.63,-0.28 -0.63,-0.63c0,-0.35 0.28,-0.63 0.63,-0.63l13.66,0c0.35,0 0.63,0.28 0.63,0.63c0,0.35 -0.28,0.63 -0.63,0.63z" id="svg_19"/>
     <path d="m28.45,6.02l-5.53,0c-0.35,0 -0.63,-0.28 -0.63,-0.63c0,-0.34 0.28,-0.63 0.63,-0.63l5.53,0c0.35,0 0.63,0.29 0.63,0.63c0,0.35 -0.28,0.63 -0.63,0.63z" id="svg_20"/>
     <path d="m20.85,6.02l-1.9,0c-0.35,0 -0.63,-0.28 -0.63,-0.63c0,-0.34 0.28,-0.63 0.63,-0.63l1.9,0c0.35,0 0.63,0.29 0.63,0.63c0,0.35 -0.28,0.63 -0.63,0.63z" id="svg_21"/>
     <path d="m16.79,6.02l-4.66,0c-0.35,0 -0.63,-0.28 -0.63,-0.63c0,-0.34 0.28,-0.63 0.63,-0.63l4.66,0c0.34,0 0.62,0.29 0.62,0.63c0,0.35 -0.28,0.63 -0.62,0.63z" id="svg_22"/>
     <path d="m10.77,14.58l-4.37,0c-0.35,0 -0.63,-0.28 -0.63,-0.63c0,-0.35 0.28,-0.63 0.63,-0.63l4.37,0c0.35,0 0.63,0.28 0.63,0.63c0,0.35 -0.28,0.63 -0.63,0.63z" id="svg_23"/>
     <path d="m4.42,14.58l-3.36,0c-0.35,0 -0.63,-0.28 -0.63,-0.63c0,-0.35 0.28,-0.63 0.63,-0.63l3.36,0c0.35,0 0.63,0.28 0.63,0.63c0,0.35 -0.28,0.63 -0.63,0.63z" id="svg_24"/>
     <path d="m18.69,14.58l-5.71,0c-0.35,0 -0.63,-0.28 -0.63,-0.63c0,-0.35 0.28,-0.63 0.63,-0.63l5.71,0c0.34,0 0.63,0.28 0.63,0.63c0,0.35 -0.29,0.63 -0.63,0.63z" id="svg_25"/>
    </g>
    <polygon fill="#64DCFC" id="svg_26" points="24.9151458 22.120697 38.953331 22.120697 38.953331 26.874672 24.9151458 26.874672"/>
    <polygon fill="#64DCFC" id="svg_27" points="24.9151458 29.4676895 38.953331 29.4676895 38.953331 33.8762131 24.9151458 33.8762131"/>
    <polygon fill="#00D1FC" id="svg_28" points="37.2933273 22.120697 38.953331 22.120697 38.953331 26.874672 37.2933273 26.874672"/>
    <polygon fill="#00D1FC" id="svg_29" points="37.2933273 29.4676895 38.953331 29.4676895 38.953331 33.8762131 37.2933273 33.8762131"/>
    <path d="m40.12,23.15l-16.37,0c-0.34,0 -0.62,-0.28 -0.62,-0.62l0,-3.15c0,-0.35 0.28,-0.63 0.62,-0.63l16.37,0c0.34,0 0.62,0.28 0.62,0.63l0,3.15c0,0.34 -0.28,0.62 -0.62,0.62z" fill="#0396FD" id="svg_30"/>
    <path d="m40.12,30.22l-16.37,0c-0.34,0 -0.62,-0.28 -0.62,-0.63l0,-3.15c0,-0.35 0.28,-0.63 0.62,-0.63l16.37,0c0.34,0 0.62,0.28 0.62,0.63l0,3.15c0,0.35 -0.28,0.63 -0.62,0.63z" fill="#0396FD" id="svg_31"/>
    <path d="m40.12,37.28l-16.37,0c-0.34,0 -0.62,-0.28 -0.62,-0.62l0,-3.15c0,-0.35 0.28,-0.63 0.62,-0.63l16.37,0c0.34,0 0.62,0.28 0.62,0.63l0,3.15c0,0.34 -0.28,0.62 -0.62,0.62z" fill="#0396FD" id="svg_32"/>
    <path d="m40.74,19.38l0,3.15c0,0.34 -0.28,0.62 -0.62,0.62l-1.46,0c0.35,0 0.63,-0.28 0.63,-0.62l0,-3.15c0,-0.35 -0.28,-0.63 -0.63,-0.63l1.46,0c0.34,0 0.62,0.28 0.62,0.63z" fill="#0077F0" id="svg_33"/>
    <path d="m40.74,26.44l0,3.15c0,0.35 -0.28,0.63 -0.62,0.63l-1.46,0c0.35,0 0.63,-0.28 0.63,-0.63l0,-3.15c0,-0.35 -0.28,-0.63 -0.63,-0.63l1.46,0c0.34,0 0.62,0.28 0.62,0.63z" fill="#0077F0" id="svg_34"/>
    <path d="m40.74,33.51l0,3.15c0,0.34 -0.28,0.62 -0.62,0.62l-1.46,0c0.35,0 0.63,-0.28 0.63,-0.62l0,-3.15c0,-0.35 -0.28,-0.63 -0.63,-0.63l1.46,0c0.34,0 0.62,0.28 0.62,0.63z" fill="#0077F0" id="svg_35"/>
    <path d="m28.59,21.58l-3.12,0c-0.35,0 -0.63,-0.28 -0.63,-0.63c0,-0.35 0.28,-0.63 0.63,-0.63l3.12,0c0.34,0 0.63,0.28 0.63,0.63c0,0.35 -0.29,0.63 -0.63,0.63z" fill="#E7E7E7" id="svg_36"/>
    <path d="m38.4,21.58l-4.4,0c-0.35,0 -0.63,-0.28 -0.63,-0.63c0,-0.35 0.28,-0.63 0.63,-0.63l4.4,0c0.35,0 0.63,0.28 0.63,0.63c0,0.35 -0.28,0.63 -0.63,0.63z" fill="#E7E7E7" id="svg_37"/>
    <path d="m31.8,21.58l-1.01,0c-0.35,0 -0.63,-0.28 -0.63,-0.63c0,-0.35 0.28,-0.63 0.63,-0.63l1.01,0c0.34,0 0.63,0.28 0.63,0.63c0,0.35 -0.29,0.63 -0.63,0.63z" fill="#E7E7E7" id="svg_38"/>
    <path d="m28.59,28.65l-3.12,0c-0.35,0 -0.63,-0.29 -0.63,-0.63c0,-0.35 0.28,-0.63 0.63,-0.63l3.12,0c0.34,0 0.63,0.28 0.63,0.63c0,0.34 -0.29,0.63 -0.63,0.63z" fill="#E7E7E7" id="svg_39"/>
    <path d="m38.4,28.65l-4.4,0c-0.35,0 -0.63,-0.29 -0.63,-0.63c0,-0.35 0.28,-0.63 0.63,-0.63l4.4,0c0.35,0 0.63,0.28 0.63,0.63c0,0.34 -0.28,0.63 -0.63,0.63z" fill="#E7E7E7" id="svg_40"/>
    <path d="m31.8,28.65l-1.01,0c-0.35,0 -0.63,-0.29 -0.63,-0.63c0,-0.35 0.28,-0.63 0.63,-0.63l1.01,0c0.34,0 0.63,0.28 0.63,0.63c0,0.34 -0.29,0.63 -0.63,0.63z" fill="#E7E7E7" id="svg_41"/>
    <path d="m28.59,35.71l-3.12,0c-0.35,0 -0.63,-0.28 -0.63,-0.63c0,-0.35 0.28,-0.63 0.63,-0.63l3.12,0c0.34,0 0.63,0.28 0.63,0.63c0,0.35 -0.29,0.63 -0.63,0.63z" fill="#E7E7E7" id="svg_42"/>
    <path d="m38.4,35.71l-4.4,0c-0.35,0 -0.63,-0.28 -0.63,-0.63c0,-0.35 0.28,-0.63 0.63,-0.63l4.4,0c0.35,0 0.63,0.28 0.63,0.63c0,0.35 -0.28,0.63 -0.63,0.63z" fill="#E7E7E7" id="svg_43"/>
    <path d="m31.8,35.71l-1.01,0c-0.35,0 -0.63,-0.28 -0.63,-0.63c0,-0.35 0.28,-0.63 0.63,-0.63l1.01,0c0.34,0 0.63,0.28 0.63,0.63c0,0.35 -0.29,0.63 -0.63,0.63z" fill="#E7E7E7" id="svg_44"/>
    <path d="m5.39,3.74c0,0.7 -0.56,1.26 -1.26,1.26c-0.69,0 -1.25,-0.56 -1.25,-1.26c0,-0.69 0.56,-1.25 1.25,-1.25c0.7,0 1.26,0.56 1.26,1.25z" fill="#FF5770" id="svg_45"/>
    <path d="m10.23,3.74c0,0.7 -0.56,1.26 -1.25,1.26c-0.7,0 -1.26,-0.56 -1.26,-1.26c0,-0.69 0.56,-1.25 1.26,-1.25c0.69,0 1.25,0.56 1.25,1.25z" fill="#FFD86E" id="svg_46"/>
    <path d="m15.07,3.74c0,0.7 -0.56,1.26 -1.25,1.26c-0.69,0 -1.25,-0.56 -1.25,-1.26c0,-0.69 0.56,-1.25 1.25,-1.25c0.69,0 1.25,0.56 1.25,1.25z" fill="#80E0DC" id="svg_47"/>
    <path d="m5.39,3.74c0,0.7 -0.56,1.26 -1.26,1.26c-0.33,0 -0.64,-0.14 -0.86,-0.35c0.68,-0.02 1.22,-0.57 1.22,-1.25c0,-0.36 -0.15,-0.68 -0.39,-0.91c0.01,0 0.02,0 0.03,0c0.7,0 1.26,0.56 1.26,1.25z" fill="#FF435F" id="svg_48"/>
    <path d="m10.23,3.74c0,0.7 -0.56,1.26 -1.25,1.26c-0.34,0 -0.64,-0.14 -0.87,-0.35c0.68,-0.02 1.23,-0.57 1.23,-1.25c0,-0.36 -0.15,-0.68 -0.39,-0.91c0.01,0 0.02,0 0.03,0c0.69,0 1.25,0.56 1.25,1.25z" fill="#FFB509" id="svg_49"/>
    <path d="m15.07,3.74c0,0.7 -0.56,1.26 -1.25,1.26c-0.34,0 -0.64,-0.14 -0.87,-0.35c0.68,-0.02 1.23,-0.57 1.23,-1.25c0,-0.36 -0.15,-0.68 -0.39,-0.91c0.01,0 0.02,0 0.03,0c0.69,0 1.25,0.56 1.25,1.25z" fill="#00A8B0" id="svg_50"/>
   </g>
  </g>
 </g>
</svg>