<?xml version="1.0" encoding="iso-8859-1"?>
<!-- Generator: Adobe Illustrator 24.1.2, SVG Export Plug-In . SVG Version: 6.00 Build 0)  -->
<svg version="1.1" baseProfile="basic" id="Layer_1"
	 xmlns="http://www.w3.org/2000/svg" xmlns:xlink="http://www.w3.org/1999/xlink" x="0px" y="0px" viewBox="0 0 50 50"
	 xml:space="preserve">
<path style="fill:none;stroke:#000000;stroke-width:2;stroke-miterlimit:10;" d="M39,45H11c-3.314,0-6-2.686-6-6V11
	c0-3.314,2.686-6,6-6h28c3.314,0,6,2.686,6,6v28C45,42.314,42.314,45,39,45z"/>
<path d="M37.914,37h-7.937L13.086,13h7.937L37.914,37z M31.022,35h3.063L19.978,15h-3.063L31.022,35z"/>
<polygon points="15.5,37 23.973,27.08 22.844,25.476 13,37 "/>
<polygon points="26.115,21.646 27.244,23.251 36,13 33.5,13 "/>
</svg>